<svg xmlns="http://www.w3.org/2000/svg" width="72" height="72" viewBox="0 0 72 72">
  <g id="chart_1_" data-name="chart (1)" opacity="0.6">
    <path id="Path_41582" data-name="Path 41582" d="M52.832,0H19.2C6.944,0,0,6.944,0,19.2V52.8C0,65.056,6.944,72,19.2,72H52.832C65.088,72,72,65.056,72,52.8V19.2C72,6.944,65.088,0,52.832,0" fill="#a3b1c6"/>
    <path id="Path_41583" data-name="Path 41583" d="M7.518,15.9A3,3,0,0,0,4.542,18.9V43.641a2.992,2.992,0,0,0,5.984,0V18.9A3,3,0,0,0,7.518,15.9m16.8-11.808A3,3,0,0,0,21.342,7.1V43.641a2.992,2.992,0,0,0,5.984,0V7.1a3,3,0,0,0-3.008-3.008M40.894,28.953a3,3,0,0,0-3.008,3.008v11.68a2.992,2.992,0,0,0,5.984,0V31.961a3,3,0,0,0-2.976-3.008" transform="translate(11.809 10.631)" fill="#5e6f92"/>
  </g>
</svg>
