<svg xmlns="http://www.w3.org/2000/svg" width="72.892" height="72.892" viewBox="0 0 72.892 72.892">
  <g id="favorite" transform="translate(0 0)" opacity="0.6">
    <rect id="Rectangle_20748" data-name="Rectangle 20748" width="72.892" height="72.892" rx="5" transform="translate(0 0)" fill="#a3b1c6"/>
    <path id="Path_41573" data-name="Path 41573" d="M40.3,1H16V73.892H40.3A12.149,12.149,0,0,0,52.446,61.743V13.149A12.149,12.149,0,0,0,40.3,1Z" transform="translate(20.446 -1)" fill="#a3b1c6"/>
    <path id="Path_41574" data-name="Path 41574" d="M54.212,23.747a6.925,6.925,0,0,0-6.706-4.859H41.067a2.187,2.187,0,0,1-2.09-1.506l-1.992-6.147a7.046,7.046,0,0,0-13.412,0L21.58,17.381a2.187,2.187,0,0,1-2.09,1.506H13.052A7.046,7.046,0,0,0,8.9,31.619l5.224,3.79a2.187,2.187,0,0,1,.8,2.43l-1.992,6.147a7.046,7.046,0,0,0,10.837,7.872l5.224-3.79a2.187,2.187,0,0,1,2.576,0l5.224,3.79a7.04,7.04,0,0,0,10.837-7.872l-1.992-6.147a2.187,2.187,0,0,1,.8-2.43l5.224-3.79a6.9,6.9,0,0,0,2.551-7.872Z" transform="translate(6.167 6.649)" fill="#5e6f92"/>
    <path id="Path_41575" data-name="Path 41575" d="M17.288,48.079l5.224,3.79A7.04,7.04,0,0,0,33.348,44L31.356,37.85a2.187,2.187,0,0,1,.8-2.43l5.224-3.79a7.046,7.046,0,0,0-4.155-12.756H26.788a2.187,2.187,0,0,1-2.09-1.506L22.706,11.22A6.925,6.925,0,0,0,16,6.36V47.666A2.26,2.26,0,0,1,17.288,48.079Z" transform="translate(20.446 6.663)" fill="#5e6f92"/>
  </g>
</svg>
