<svg xmlns="http://www.w3.org/2000/svg" width="58.708" height="75.178" viewBox="0 0 58.708 75.178">
  <g id="users" transform="translate(-4.96 -2.98)" opacity="0.6">
    <path id="Path_41584" data-name="Path 41584" d="M42.57,19.408v.25h-.083a11.178,11.178,0,0,0-2.585.208A16.291,16.291,0,0,0,26.35,33.21a.71.71,0,0,0-.042.292,12.22,12.22,0,0,0-.25,2.585A16.307,16.307,0,0,0,34.064,50.1a20.771,20.771,0,0,0-9.507,8.172,19.568,19.568,0,0,0-1.668,3.211H12.424A7.456,7.456,0,0,1,4.96,54.016V52.89A21.161,21.161,0,0,1,17.719,33.46,16.409,16.409,0,1,1,42.57,19.408Z" transform="translate(0 0)" fill="#5e6f92"/>
    <path id="Path_41585" data-name="Path 41585" d="M51.243,56.89v1.126A7.456,7.456,0,0,1,43.78,65.48H16.344A7.456,7.456,0,0,1,8.88,58.016V56.89A21.189,21.189,0,0,1,10.464,48.8a19.568,19.568,0,0,1,1.668-3.211,20.771,20.771,0,0,1,9.507-8.172,16.307,16.307,0,0,1-8.006-14.01,12.22,12.22,0,0,1,.25-2.585.71.71,0,0,1,.042-.292A16.291,16.291,0,0,1,27.477,7.188a11.178,11.178,0,0,1,2.585-.208h.083a16.394,16.394,0,0,1,8.339,30.48,20.866,20.866,0,0,1,6.546,4.42A21.1,21.1,0,0,1,51.243,56.89Z" transform="translate(12.425 12.679)" fill="#a3b1c6"/>
  </g>
</svg>
