<svg xmlns="http://www.w3.org/2000/svg" width="72" height="49.653" viewBox="0 0 72 49.653">
  <g id="visiting-card" transform="translate(-7.5 -72.989)" opacity="0.6">
    <rect id="Rectangle_20745" data-name="Rectangle 20745" width="72" height="49.653" rx="8" transform="translate(7.5 72.989)" fill="#a3b1c6"/>
    <rect id="Rectangle_20746" data-name="Rectangle 20746" width="38.274" height="7.678" rx="3.839" transform="translate(14.403 80.027)" fill="#5e6f92"/>
    <path id="Path_41564" data-name="Path 41564" d="M71.872,188.048H48.954a1.28,1.28,0,1,1,0-2.559H71.872a1.28,1.28,0,0,1,0,2.559Zm15.355,16.383H48.954a1.28,1.28,0,1,1,0-2.559H87.227a1.28,1.28,0,1,1,0,2.559Zm-7.678,5.118h-30.6a1.28,1.28,0,1,1,0-2.559h30.6a1.28,1.28,0,1,1,0,2.559Z" transform="translate(-33.269 -93.946)" fill="#5e6f92"/>
  </g>
</svg>
