<svg xmlns="http://www.w3.org/2000/svg" id="_33834850_24_v_blacjk" data-name="33834850_24_v_blacjk" width="468.645" height="414.694" viewBox="0 0 468.645 414.694">
  <path id="Path_1" data-name="Path 1" d="M1307.327,1105.913c2.251-10.489,4.533-20.657,6.778-30.418a353.585,353.585,0,0,0-22.1,36.662,186.82,186.82,0,0,0-108.634,169.576c0,103.054,83.542,186.595,186.6,186.595s186.594-83.541,186.594-186.595a185.742,185.742,0,0,0-35.193-109.086c57-51.546,129.188-33.982,130.647-33.619-66.8-17.656-110.223-6.7-141.983,19.42-65.58,53.937-81.407,172.541-150.506,237.45-38.713,36.367-58.744,10.7-68.181-32.246-16.927-77.02-1.378-176.851,15.982-257.739" transform="translate(-1183.37 -1053.635)" fill="#1E3A8A" fill-rule="evenodd"/>
  <path id="Path_2" data-name="Path 2" d="M1889.823,998.5c-34.208,8.553-60.295,31.141-74.826,46.552a185.779,185.779,0,0,0-49.789-9.984,230.408,230.408,0,0,1,24.107-37.88,191.778,191.778,0,0,0-35.941,37.523c-33.223,45.354-50,106.192-47.337,165.737,3.682,82.25,43.237,17.178,89.886-94.532,9.429-22.58,20.362-40.847,32.781-55.469,42.573-50.131,102.59-57.43,179.239-48.857,0,0-64.107-16.594-118.121-3.09" transform="translate(-1566.993 -993.203)" fill="#1E3A8A" fill-rule="evenodd"/>
</svg>