<svg xmlns="http://www.w3.org/2000/svg" width="19.579" height="13.951" viewBox="0 0 19.579 13.951">
  <g id="email" opacity="0.5">
    <path id="Path_40751" data-name="Path 40751" d="M18.878,24.631H4.861A2.784,2.784,0,0,1,2.08,21.85V13.461A2.784,2.784,0,0,1,4.861,10.68H18.878a2.784,2.784,0,0,1,2.781,2.781V21.85A2.784,2.784,0,0,1,18.878,24.631ZM4.861,11.662a1.8,1.8,0,0,0-1.8,1.8V21.85a1.8,1.8,0,0,0,1.8,1.8H18.878a1.8,1.8,0,0,0,1.8-1.8V13.461a1.8,1.8,0,0,0-1.8-1.8Z" transform="translate(-2.08 -10.68)" fill="#2f2f2f"/>
    <path id="Path_40752" data-name="Path 40752" d="M12.409,23.212a2.784,2.784,0,0,1-1.678-.559l-7.64-5.778a.491.491,0,1,1,.592-.782l7.64,5.785a1.816,1.816,0,0,0,2.173,0l7.64-5.785a.491.491,0,1,1,.592.782l-7.64,5.778a2.784,2.784,0,0,1-1.678.56Z" transform="translate(-2.619 -14.247)" fill="#2f2f2f"/>
    <path id="Path_40753" data-name="Path 40753" d="M3.159,36.08a.491.491,0,0,1-.327-.857l6.02-5.369a.491.491,0,1,1,.654.733l-6.02,5.369A.478.478,0,0,1,3.159,36.08Zm18.212,0a.478.478,0,0,1-.327-.124l-6.02-5.369a.491.491,0,1,1,.654-.733l6.017,5.369a.491.491,0,0,1-.327.857Z" transform="translate(-2.475 -23.496)" fill="#2f2f2f"/>
  </g>
</svg>
