<svg xmlns="http://www.w3.org/2000/svg" width="20.062" height="20.061" viewBox="0 0 20.062 20.061">
  <g id="search" opacity="0.5">
    <path id="Path_9" data-name="Path 9" d="M9.195,18.389a9.195,9.195,0,1,1,9.195-9.195A9.205,9.205,0,0,1,9.195,18.389Zm0-16.717a7.523,7.523,0,1,0,7.523,7.523A7.531,7.531,0,0,0,9.195,1.672Z" fill="#040812"/>
    <path id="Path_10" data-name="Path 10" d="M22.049,22.885a.833.833,0,0,1-.591-.245L17.45,18.632a.836.836,0,0,1,1.183-1.182l4.007,4.008a.835.835,0,0,1-.591,1.427Z" transform="translate(-2.824 -2.824)" fill="#040812"/>
  </g>
</svg>
