<svg xmlns="http://www.w3.org/2000/svg" width="580.648" height="348.079" viewBox="0 0 580.648 348.079">
  <g id="Waypass_-03" data-name="Waypass -03" transform="translate(-15.82 -25.15)">
    <g id="Group_42900" data-name="Group 42900" transform="translate(139.5 25.15)">
      <path id="Path_41068" data-name="Path 41068" d="M688.643,25.16l-4.118,4.148a10.326,10.326,0,0,0-2.411,4.193c-16.282,51.9-29.475,106.075-44.639,158.79-1.757,5.281-7.328,13-11.456,13H569.81l1.363-1.652a27.32,27.32,0,0,0,5.321-10.243L618.562,37.918c1.428-6.14,6.634-12.758,11.1-12.758h58.98Z" transform="translate(-416.965 -25.155)" fill="#fff"/>
      <path id="Path_41069" data-name="Path 41069" d="M535.543,25.16l-4.118,3.928a9.676,9.676,0,0,0-2.411,3.978c-16.282,49.206-29.475,100.579-44.639,150.559-1.757,5.007-7.328,12.324-11.456,12.324H416.71l1.363-1.567a25.469,25.469,0,0,0,5.321-9.714L465.462,37.254c1.428-5.82,6.634-12.094,11.1-12.094h58.98Z" transform="translate(-340.285 -25.155)" fill="#fff"/>
      <path id="Path_41070" data-name="Path 41070" d="M382.433,25.155l-4.118,3.6A8.761,8.761,0,0,0,375.9,32.4c-16.282,45.093-29.475,92.168-44.639,137.971-1.757,4.587-7.328,11.3-11.456,11.3H263.6l1.363-1.433a22.806,22.806,0,0,0,5.321-8.9l42.073-135.1c1.428-5.331,6.634-11.086,11.1-11.086h58.98Z" transform="translate(-263.6 -25.15)" fill="#fff"/>
      <path id="Path_41071" data-name="Path 41071" d="M752.754,154.83l-.554-1.557,31.711-114.98c3.234-8.915,7.348-11.63,14.026-12.269,9.369-.9,27.294-1.428,36.343.12,6.185,1.058,10.013,6.883,9.09,16.317-9.3,34.971-18.389,70.585-29.575,104.308-2.116,4.348-7.647,8.066-11.161,8.066H752.749Z" transform="translate(-508.315 -25.155)" fill="#d0b786"/>
    </g>
    <path id="Path_41116" data-name="Path 41116" d="M864.054,25.664l-.115.319-.23-.319-.389-.5h.1Z" transform="translate(-424.469 -0.005)" fill="#12204b"/>
    <path id="Path_41117" data-name="Path 41117" d="M824.908,134.109l.454-.319-.11.319-1.343.7Z" transform="translate(-404.73 -54.412)" fill="#12204b"/>
  </g>
</svg>
