<svg xmlns="http://www.w3.org/2000/svg" width="40" height="40" viewBox="0 0 40 40">
  <g id="Group_10458" data-name="Group 10458" transform="translate(-1467 -111)">
    <path id="initium_-_Logo" data-name="initium - Logo" d="M20,0A20,20,0,1,1,0,20,20,20,0,0,1,20,0Z" transform="translate(1467 111)" fill="#1e3a8a"/>
    <path id="user_7_" data-name="user (7)" d="M12.62,13.579c3.035,0,5.623-2.048,5.623-5.083a5.5,5.5,0,0,0-10.991,0A5.05,5.05,0,0,0,12.62,13.579Zm.127,3.161c-4.325,0-10.354,2.17-12.946,5.633,2.593,3.462,8.621,5.362,12.946,5.359s10.154-1.9,12.747-5.359c-2.593-3.462-8.422-5.636-12.747-5.633Z" transform="translate(1474.339 122.224)" fill="#fff"/>
  </g>
</svg>
