<svg xmlns="http://www.w3.org/2000/svg" width="32" height="32" viewBox="0 0 32 32">
  <g id="Group_10458" data-name="Group 10458" transform="translate(-1467 -111)">
    <path id="initium_-_Logo" data-name="initium - Logo" d="M16,0A16,16,0,1,1,0,16,16,16,0,0,1,16,0Z" transform="translate(1467 111)" fill="#040812" opacity="0.3"/>
    <path id="user_7_" data-name="user (7)" d="M10.056,11.463a4.216,4.216,0,0,0,4.5-4.066,4.4,4.4,0,1,0-8.793,0A4.04,4.04,0,0,0,10.056,11.463Zm.1,2.528C6.7,13.989,1.875,15.728-.2,18.5c2.074,2.77,6.9,4.29,10.357,4.287s8.124-1.517,10.2-4.287c-2.074-2.77-6.737-4.509-10.2-4.506Z" transform="translate(1472.911 119.379)" fill="#fff"/>
  </g>
</svg>
