<svg xmlns="http://www.w3.org/2000/svg" width="29.627" height="31.547" viewBox="0 0 29.627 31.547">
  <g id="notification_1_" data-name="notification (1)" transform="translate(-4.543 -2.249)">
    <path id="Path_41551" data-name="Path 41551" d="M27.893,23.191l-.008-.015a2.009,2.009,0,0,1-.358-1.147V14.787A10.934,10.934,0,0,0,17.82,3.938V3.462a1.213,1.213,0,1,0-2.427,0v.476A10.934,10.934,0,0,0,5.687,14.787v7.044a2.026,2.026,0,0,1-.33,1.108l-.212.322a3.669,3.669,0,0,0,3.069,5.682h3.944v.4a4.449,4.449,0,1,0,8.9,0v-.4h3.816a3.67,3.67,0,0,0,3.02-5.753Zm-9.263,6.157a2.022,2.022,0,1,1-4.044,0v-.4h4.044Zm7.343-3.5a1.222,1.222,0,0,1-1.1.665H8.214a1.243,1.243,0,0,1-1.04-1.924l.212-.322a4.433,4.433,0,0,0,.73-2.44V14.788a8.493,8.493,0,1,1,16.987,0v7.243a4.352,4.352,0,0,0,.749,2.467l.008.015c.011.021.024.037.037.057A1.22,1.22,0,0,1,25.972,25.852Z" fill="#040812" opacity="0.6"/>
    <g id="Group_42976" data-name="Group 42976" transform="translate(4 7)">
      <circle id="Ellipse_1654" data-name="Ellipse 1654" cx="6.813" cy="6.813" r="6.813" transform="translate(16.543 8.883)" fill="#28ea67"/>
      <text id="_3" data-name="3" transform="translate(20.543 18.883)" fill="#040812" font-size="10" font-family="Poppins-Regular, Poppins"><tspan x="0" y="0">3</tspan></text>
    </g>
  </g>
</svg>
