<svg xmlns="http://www.w3.org/2000/svg" width="16" height="14.29" viewBox="0 0 16 14.29">
  <g id="setting_1_" data-name="setting (1)" transform="translate(-4.635 -7.56)" opacity="0.6">
    <circle id="Ellipse_1619" data-name="Ellipse 1619" cx="4.543" cy="4.543" r="4.543" transform="translate(7.612 12.407)" fill="#d3d3d3"/>
    <circle id="Ellipse_1620" data-name="Ellipse 1620" cx="2.131" cy="2.131" r="2.131" transform="translate(12.968 10.121)" fill="#d3d3d3"/>
    <circle id="Ellipse_1621" data-name="Ellipse 1621" cx="2.327" cy="2.327" r="2.327" transform="translate(10.308 12.378)" fill="#a8a8a8"/>
    <path id="Path_40782" data-name="Path 40782" d="M15.83,21.85H9.439a1.62,1.62,0,0,1-1.394-.8l-3.2-5.537a1.611,1.611,0,0,1,0-1.608l3.2-5.537a1.62,1.62,0,0,1,1.394-.8H15.83a1.62,1.62,0,0,1,1.394.8l3.2,5.537a1.611,1.611,0,0,1,0,1.608l-3.2,5.537a1.62,1.62,0,0,1-1.394.8ZM9.439,8.437a.737.737,0,0,0-.634.365L5.619,14.339a.725.725,0,0,0,0,.731l3.187,5.537a.737.737,0,0,0,.634.365H15.83a.737.737,0,0,0,.634-.365l3.187-5.537a.725.725,0,0,0,0-.731L16.464,8.8a.737.737,0,0,0-.634-.365Z" fill="#2f2f2f"/>
    <path id="Path_40783" data-name="Path 40783" d="M24.874,27.818a2.944,2.944,0,1,1,2.944-2.944A2.944,2.944,0,0,1,24.874,27.818Zm0-5.011a2.067,2.067,0,1,0,2.067,2.067A2.067,2.067,0,0,0,24.874,22.807Z" transform="translate(-12.239 -10.169)" fill="#2f2f2f"/>
  </g>
</svg>
