<svg xmlns="http://www.w3.org/2000/svg" width="16" height="16.012" viewBox="0 0 16 16.012">
  <g id="users_1_" data-name="users (1)" transform="translate(-6.305 -6.219)" opacity="0.6">
    <circle id="Ellipse_1622" data-name="Ellipse 1622" cx="4.833" cy="4.833" r="4.833" transform="translate(8.953 11.793)" fill="#a8a8a8"/>
    <circle id="Ellipse_1623" data-name="Ellipse 1623" cx="2.267" cy="2.267" r="2.267" transform="translate(14.651 9.36)" fill="#a8a8a8"/>
    <path id="Path_40787" data-name="Path 40787" d="M16.768,40.722a.311.311,0,0,1-.124-.292,4.907,4.907,0,0,1,4.731-4.563c3.956-.174,4.743,3.633,4.874,4.55a.311.311,0,0,1-.14.311C25.225,41.285,20.92,43.727,16.768,40.722Z" transform="translate(-7.121 -20.423)" fill="#d3d3d3"/>
    <path id="Path_40788" data-name="Path 40788" d="M25.413,19.643a2.976,2.976,0,1,1,2.98-2.974,2.961,2.961,0,0,1-2.98,2.974Zm0-5.017a2,2,0,0,0-1.269.442,2.047,2.047,0,0,0,.47,3.48,2.081,2.081,0,0,0,1.648-.022,2.043,2.043,0,0,0,.513-3.378,2.022,2.022,0,0,0-1.362-.523Z" transform="translate(-11.117 -5.148)" fill="#2f2f2f"/>
    <path id="Path_40789" data-name="Path 40789" d="M23.392,20.983a3,3,0,0,1-1.987-.759.463.463,0,0,1,.115-.771,2.047,2.047,0,0,0,.516-3.381.467.467,0,0,1,.118-.771A2.976,2.976,0,1,1,23.4,20.983Zm-.818-1.1a2.04,2.04,0,1,0,.818-3.925h-.221a2.976,2.976,0,0,1-.6,3.9Zm-1.9,8.422H20.11a3.076,3.076,0,0,1-.4-.04,1.431,1.431,0,0,1-.187-.022l-.218-.031-.187-.062c-.118-.025-.221-.047-.311-.075s-.224-.053-.345-.09l-.277-.078c-.1-.031-.2-.065-.3-.106a7.359,7.359,0,0,1-1.188-.557l-.134-.09-.065-.04a8,8,0,0,1-.765-.532.473.473,0,0,1-.177-.327V26.1a5.115,5.115,0,0,1,10.229.012v.156a.473.473,0,0,1-.177.327c-.084.065-.168.131-.252.19l-.121.084c-.044.034-.1.072-.152.106s-.184.121-.28.177-.184.109-.274.159a7.729,7.729,0,0,1-.911.432l-.264.1-.274.093-.208.062-.224.059-.23.059c-.258.056-.516.1-.765.131l-.311.031q-.1.005-.208,0h-.249ZM20.819,27.368ZM16.49,25.99c.162.118.327.23.495.333l.072.044.112.065a6.308,6.308,0,0,0,1.057.495c.093.037.168.062.249.087a2.372,2.372,0,0,0,.227.072c.1.031.2.059.311.081s.18.044.261.062l.211.037.193.031.134.016a3.558,3.558,0,0,0,.37.034,2.361,2.361,0,0,0,.246,0,2.362,2.362,0,0,0,.249,0h.6a.776.776,0,0,0,.261-.028,6.763,6.763,0,0,0,.687-.124.748.748,0,0,0,.2-.05l.187-.047.2-.059.239-.081.243-.093c.09-.034.165-.068.239-.1.2-.087.376-.174.551-.271l.249-.146c.078-.047.159-.1.233-.149l.115-.075.028-.022.1-.068.056-.04a4.186,4.186,0,0,0-8.37,0ZM25.32,26.217Z" transform="translate(-6.377 -6.071)" fill="#2f2f2f"/>
    <path id="Path_40790" data-name="Path 40790" d="M21.147,26.573a.467.467,0,0,1-.463-.507v-.075a4.174,4.174,0,0,0-2.351-3.766.467.467,0,0,1,.137-.88,5.452,5.452,0,0,1,.75-.053,5.116,5.116,0,0,1,4.258,2.28.463.463,0,0,1,.022.482,8.055,8.055,0,0,1-2.062,2.42.473.473,0,0,1-.289.1Zm-1.085-4.264a5.076,5.076,0,0,1,1.484,2.8,7.153,7.153,0,0,0,.989-1.266,4.193,4.193,0,0,0-2.473-1.533Zm-6.105-1.5A2.976,2.976,0,1,1,15.119,15.1a.467.467,0,0,1,.112.8,2.022,2.022,0,0,0-.771,1.6A2.043,2.043,0,0,0,15.7,19.354a.467.467,0,0,1,.109.793A2.964,2.964,0,0,1,13.956,20.813Zm0-5.017a2.043,2.043,0,1,0,0,4.084,1.991,1.991,0,0,0,.641-.1,2.986,2.986,0,0,1-.544-3.981Zm-2.1,10.777a.473.473,0,0,1-.289-.1,7.962,7.962,0,0,1-2-2.3.467.467,0,0,1,0-.473,5.088,5.088,0,0,1,4.382-2.488,5.347,5.347,0,0,1,.731.05.467.467,0,0,1,.128.89,4.2,4.2,0,0,0-2.488,3.832v.075a.467.467,0,0,1-.463.507Zm-1.331-2.625a7.216,7.216,0,0,0,.933,1.179,5.132,5.132,0,0,1,1.536-2.864,4.155,4.155,0,0,0-2.47,1.686Z" transform="translate(-2.204 -5.954)" fill="#2f2f2f"/>
    <path id="Path_40791" data-name="Path 40791" d="M14.3,22.23h-.563a3.076,3.076,0,0,1-.4-.04,1.43,1.43,0,0,1-.187-.022l-.218-.031-.187-.062c-.118-.025-.221-.047-.311-.075s-.224-.053-.345-.09l-.277-.078c-.1-.031-.2-.065-.3-.106a7.359,7.359,0,0,1-1.188-.557l-.134-.09-.065-.04a8,8,0,1,1,9.107-.519c-.084.065-.168.131-.252.19l-.121.084c-.044.034-.1.072-.152.106s-.184.121-.28.177-.184.109-.274.159a7.729,7.729,0,0,1-.911.432c-.1.037-.137.053-.218.084l-.047.016-.274.093-.208.062-.224.059-.23.059c-.258.056-.516.1-.765.131l-.311.031q-.1.005-.208,0h-.249ZM14.443,21.3ZM14.3,7.177A7.054,7.054,0,0,0,9.942,19.786a7.418,7.418,0,0,0,.672.467l.072.044.112.065a6.308,6.308,0,0,0,1.057.495c.093.037.168.062.249.087a2.373,2.373,0,0,0,.227.072c.1.031.2.059.311.081s.18.044.261.062l.211.037.193.031.134.016a3.558,3.558,0,0,0,.37.034,2.36,2.36,0,0,0,.246,0,2.361,2.361,0,0,0,.249,0h.6a.776.776,0,0,0,.261-.028,6.762,6.762,0,0,0,.681-.124.748.748,0,0,0,.2-.05l.187-.047.2-.059.239-.081.04-.016.2-.075c.1-.037.171-.072.246-.106.2-.087.376-.174.551-.271l.249-.146c.078-.047.159-.1.233-.149l.115-.075.028-.022.1-.068c.087-.062.159-.118.23-.174A7.057,7.057,0,0,0,14.3,7.177Z" fill="#2f2f2f"/>
  </g>
</svg>
