<svg xmlns="http://www.w3.org/2000/svg" width="15.114" height="16.02" viewBox="0 0 15.114 16.02">
  <path id="Path_40638" data-name="Path 40638" d="M52.884,30.041l-7.208-5.323a.348.348,0,0,0-.412,0l-7.212,5.323a.338.338,0,0,0,.2.613H39.26v7.208h-.925a.351.351,0,0,0-.353.343v2.128a.343.343,0,0,0,.353.336H52.6a.345.345,0,0,0,.353-.336V38.206a.348.348,0,0,0-.353-.343h-.932V30.658h1.005a.342.342,0,0,0,.208-.617Zm-7.416-4.62,6.155,4.543H39.312Zm1.663,12.445V30.658h1.56v7.208ZM43.8,30.658v7.208h-1.56V30.658Zm.693,0h1.941v7.208H44.5Zm-4.54,0h1.594v7.208H39.957Zm12.3,9.323H38.675V38.559H52.26Zm-1.282-2.114H49.383V30.658h1.594Z" transform="translate(-37.909 -24.65)" fill="#040812"/>
</svg>
