<svg xmlns="http://www.w3.org/2000/svg" width="17.3" height="17.33" viewBox="0 0 17.3 17.33">
  <g id="examp" transform="translate(-3.35 -3.35)">
    <path id="Path_40774" data-name="Path 40774" d="M18,20H7a2.946,2.946,0,0,1-3-3V7A2.946,2.946,0,0,1,7,4h6a2.946,2.946,0,0,1,3,3V18A2.006,2.006,0,0,0,18,20Z" fill="none" stroke="#040812" stroke-linecap="round" stroke-linejoin="round" stroke-width="1.3"/>
    <path id="Path_40776" data-name="Path 40776" d="M20,14v3.9A2.14,2.14,0,0,1,18.3,20,2.025,2.025,0,0,1,16,18V12h2A2.006,2.006,0,0,1,20,14Z" fill="none" stroke="#040812" stroke-linecap="round" stroke-linejoin="round" stroke-width="1.3"/>
    <line id="Line_280" data-name="Line 280" x2="4" transform="translate(8 8)" fill="none" stroke="#040812" stroke-linecap="round" stroke-linejoin="round" stroke-width="1.3"/>
    <line id="Line_281" data-name="Line 281" x2="4" transform="translate(8 12)" fill="none" stroke="#040812" stroke-linecap="round" stroke-linejoin="round" stroke-width="1.3"/>
    <line id="Line_282" data-name="Line 282" x2="4" transform="translate(8 16)" fill="none" stroke="#040812" stroke-linecap="round" stroke-linejoin="round" stroke-width="1.3"/>
  </g>
</svg>
