<svg xmlns="http://www.w3.org/2000/svg" width="11.579" height="16.3" viewBox="0 0 11.579 16.3">
  <g id="location_1_" data-name="location (1)" transform="translate(-15.2 -8.4)">
    <path id="Path_40639" data-name="Path 40639" d="M20.989,24.7l-.31-.379c-.207-.276-5.479-6.444-5.479-10.131a5.789,5.789,0,1,1,11.579,0c0,3.687-5.273,9.89-5.479,10.132Zm0-15.507a4.964,4.964,0,0,0-4.962,4.962c0,2.895,3.825,7.823,4.962,9.236,1.137-1.413,4.962-6.306,4.962-9.236A4.964,4.964,0,0,0,20.989,9.193Z" transform="translate(0)" fill="#040812"/>
    <path id="Path_40640" data-name="Path 40640" d="M27.806,23.211a2.205,2.205,0,1,1,2.205-2.205A2.221,2.221,0,0,1,27.806,23.211Zm0-3.584a1.378,1.378,0,1,0,1.378,1.378A1.382,1.382,0,0,0,27.806,19.627Z" transform="translate(-6.816 -6.816)" fill="#040812"/>
  </g>
</svg>
