<svg xmlns="http://www.w3.org/2000/svg" width="57" height="57" viewBox="0 0 57 57">
  <g id="Group_42544" data-name="Group 42544" transform="translate(-144 -215)">
    <circle id="Ellipse_1615" data-name="Ellipse 1615" cx="28.5" cy="28.5" r="28.5" transform="translate(144 215)" fill="#fafbfc"/>
    <path id="user_2_" data-name="user (2)" d="M36.872,40.1A11.05,11.05,0,1,0,25.852,29.02,11.021,11.021,0,0,0,36.872,40.1ZM22.535,61.537s6.058,3.948,12.758,4.246S49.334,62.73,49.334,62.73c7.037-3.979,8.246-6.039,8.246-6.827A13.9,13.9,0,0,0,43.714,42.038H30.152c-7.629,0-14.384,6.237-14.384,13.866C15.768,56.691,21.748,61.537,22.535,61.537Z" transform="translate(135.753 206.006)" fill="#040812" opacity="0.5"/>
  </g>
</svg>
