<svg xmlns="http://www.w3.org/2000/svg" width="16" height="15.088" viewBox="0 0 16 15.088">
  <g id="question" transform="translate(-3 -3)">
    <path id="Path_40644" data-name="Path 40644" d="M4.143,18.088A1.146,1.146,0,0,1,3,16.945V5.286A2.288,2.288,0,0,1,5.286,3H16.714A2.288,2.288,0,0,1,19,5.286v9.143a2.288,2.288,0,0,1-2.286,2.286H7.4a1.9,1.9,0,0,0-.925.24L4.7,17.942A1.139,1.139,0,0,1,4.143,18.088ZM5.286,3.762A1.524,1.524,0,0,0,3.762,5.286V16.943a.381.381,0,0,0,.566.333l1.779-.988a2.674,2.674,0,0,1,1.3-.336h9.312a1.524,1.524,0,0,0,1.524-1.524V5.286a1.524,1.524,0,0,0-1.524-1.524Z" transform="translate(0 0)" fill="#040812"/>
    <path id="Path_40645" data-name="Path 40645" d="M20.286,16.476A.381.381,0,0,1,19.9,16.1V14.838a1.137,1.137,0,0,1,.819-1.093,1.524,1.524,0,1,0-1.962-1.459.381.381,0,1,1-.762,0,2.287,2.287,0,1,1,2.943,2.19.381.381,0,0,0-.277.363V16.1A.381.381,0,0,1,20.286,16.476Z" transform="translate(-9.286 -4.333)" fill="#040812"/>
    <circle id="Ellipse_1603" data-name="Ellipse 1603" cx="0.571" cy="0.571" r="0.571" transform="translate(10.429 12.714)" fill="#040812"/>
  </g>
</svg>
