<svg xmlns="http://www.w3.org/2000/svg" width="16" height="16" viewBox="0 0 16 16">
  <g id="time_1_" data-name="time (1)" transform="translate(-3 -3)">
    <path id="Path_40196" data-name="Path 40196" d="M11,19a8,8,0,1,1,8-8,8,8,0,0,1-8,8ZM11,4.333A6.667,6.667,0,1,0,17.667,11,6.667,6.667,0,0,0,11,4.333Z" fill="#2f2f2f"/>
    <path id="Path_40197" data-name="Path 40197" d="M18,16.667a.667.667,0,0,1-.447-.173l-3.333-3A.667.667,0,0,1,14,13V9.667a.667.667,0,1,1,1.333,0V12.7l3.113,2.8A.667.667,0,0,1,18,16.667Z" transform="translate(-3.667 -2)" fill="#2f2f2f"/>
  </g>
</svg>
