<svg xmlns="http://www.w3.org/2000/svg" width="16" height="15.249" viewBox="0 0 16 15.249">
  <path id="user_2_" data-name="user (2)" d="M24.377,26.563a4.282,4.282,0,1,0-4.27-4.293A4.27,4.27,0,0,0,24.377,26.563Zm0-7.437a3.144,3.144,0,1,1-3.144,3.167A3.144,3.144,0,0,1,24.377,19.126ZM16.963,33.249H31.837a.571.571,0,0,0,.563-.563,5.387,5.387,0,0,0-5.372-5.372H21.772A5.387,5.387,0,0,0,16.4,32.686.571.571,0,0,0,16.963,33.249Zm4.809-4.809h5.255a4.231,4.231,0,0,1,4.2,3.683H17.573A4.231,4.231,0,0,1,21.772,28.44Z" transform="translate(-16.4 -18)" fill="#040812"/>
</svg>
