<svg xmlns="http://www.w3.org/2000/svg" width="116.451" height="21.116" viewBox="0 0 116.451 21.116">
  <g id="Waypass_-08" data-name="Waypass -08" transform="translate(-19.53 -7.03)">
    <g id="Group_42915" data-name="Group 42915" transform="translate(19.53 10.163)">
      <path id="Path_41206" data-name="Path 41206" d="M183.5,38.27l-.411.414a1.036,1.036,0,0,0-.241.418c-1.625,5.181-2.942,10.589-4.457,15.852-.176.528-.731,1.3-1.143,1.3H171.64l.135-.164a2.739,2.739,0,0,0,.532-1.023l4.2-15.521c.142-.613.662-1.274,1.108-1.274H183.5Z" transform="translate(-156.382 -38.269)" fill="#12204b"/>
      <path id="Path_41207" data-name="Path 41207" d="M107.443,38.261l-.411.392a.966.966,0,0,0-.241.4c-1.625,4.912-2.942,10.041-4.457,15.03-.176.5-.731,1.231-1.143,1.231H95.58l.135-.156a2.549,2.549,0,0,0,.532-.97l4.2-14.717c.142-.581.662-1.208,1.108-1.208h5.888Z" transform="translate(-87.952 -38.26)" fill="#12204b"/>
      <path id="Path_41208" data-name="Path 41208" d="M31.392,38.27l-.411.359a.875.875,0,0,0-.241.364c-1.625,4.5-2.942,9.2-4.457,13.774-.176.458-.731,1.127-1.143,1.127H19.53l.135-.143a2.282,2.282,0,0,0,.532-.889l4.2-13.486c.142-.533.662-1.106,1.108-1.106h5.888Z" transform="translate(-19.53 -38.269)" fill="#12204b"/>
      <path id="Path_41209" data-name="Path 41209" d="M262.305,51.227l-.055-.155,3.166-11.478c.323-.89.733-1.161,1.4-1.225a18.038,18.038,0,0,1,3.628.012c.617.105,1,.687.908,1.629-.929,3.492-1.836,7.047-2.952,10.413a1.527,1.527,0,0,1-1.114.805h-4.98Z" transform="translate(-237.904 -38.28)" fill="#d0b786"/>
    </g>
    <g id="Group_42916" data-name="Group 42916" transform="translate(56.311 14.186)">
      <path id="Path_41210" data-name="Path 41210" d="M388.866,90.131,386.22,80.66h2.268l1.749,6.922.178.734h.155l.186-.734,1.756-6.647h2.876l1.756,6.647.186.734h.155l.178-.726,1.763-6.929h2.261l-2.646,9.471h-3.112l-1.437-5.581-.466-1.846h-.14l-.474,1.846-1.43,5.581h-3.113Z" transform="translate(-386.22 -80.43)" fill="#12204b"/>
      <path id="Path_41211" data-name="Path 41211" d="M536.87,90.131,541.1,80.66h3.209l4.195,9.471H546.26l-3.439-8.123h-.23l-3.476,8.123Zm2.824-2.393v-1.7h5.98v1.7Z" transform="translate(-521.759 -80.43)" fill="#12204b"/>
      <path id="Path_41212" data-name="Path 41212" d="M642.99,87.545l-4.61-6.885h2.393l2.126,3.268.934,1.43h.118l.927-1.415,2.142-3.283h2.393l-4.6,6.885h-1.823Zm-.178,2.586V85.706h2.172v4.424Z" transform="translate(-613.087 -80.43)" fill="#12204b"/>
      <path id="Path_41213" data-name="Path 41213" d="M762.36,90.131V80.66h2.135v9.471Zm1.579-2.876v-1.7h3.839a2.2,2.2,0,0,0,1.452-.4,1.422,1.422,0,0,0,.459-1.137V83.9a1.434,1.434,0,0,0-.459-1.145,2.2,2.2,0,0,0-1.452-.4h-3.869v-1.7h3.92a4.631,4.631,0,0,1,3.079.856,2.993,2.993,0,0,1,.989,2.39v.118a2.982,2.982,0,0,1-.989,2.368,4.6,4.6,0,0,1-3.079.864h-3.891Z" transform="translate(-724.631 -80.43)" fill="#d0b786"/>
      <path id="Path_41214" data-name="Path 41214" d="M853.76,90.131l4.232-9.471H861.2l4.195,9.471H863.15l-3.438-8.123h-.23l-3.476,8.123H853.76Zm2.824-2.393v-1.7h5.981v1.7Z" transform="translate(-806.863 -80.43)" fill="#d0b786"/>
      <path id="Path_41215" data-name="Path 41215" d="M983.289,88.308a10.8,10.8,0,0,1-1.771-.137,11.377,11.377,0,0,1-1.486-.341q-.664-.2-1.146-.4l-.23-2.008a13.03,13.03,0,0,0,2.053.737,9.529,9.529,0,0,0,2.572.337,4.881,4.881,0,0,0,1.942-.278.92.92,0,0,0,.593-.879v-.022a.854.854,0,0,0-.252-.652,1.875,1.875,0,0,0-.871-.374,14.06,14.06,0,0,0-1.716-.234,12.15,12.15,0,0,1-2.513-.448,2.733,2.733,0,0,1-1.4-.893,2.5,2.5,0,0,1-.441-1.542v-.037a2.3,2.3,0,0,1,1.093-2.071,6.223,6.223,0,0,1,3.309-.7,11.192,11.192,0,0,1,2.516.245,10.307,10.307,0,0,1,1.76.556L987.543,81a10.234,10.234,0,0,0-1.96-.645,10.586,10.586,0,0,0-2.36-.252,6.224,6.224,0,0,0-1.437.129,1.445,1.445,0,0,0-.726.359.811.811,0,0,0-.208.564v.007a.819.819,0,0,0,.208.571,1.649,1.649,0,0,0,.807.382,12.648,12.648,0,0,0,1.771.263,14.259,14.259,0,0,1,2.5.418,2.8,2.8,0,0,1,1.448.853,2.465,2.465,0,0,1,.47,1.6v.052a2.481,2.481,0,0,1-1.179,2.271,6.954,6.954,0,0,1-3.587.73Z" transform="translate(-919.199 -78.37)" fill="#d0b786"/>
      <path id="Path_41216" data-name="Path 41216" d="M1091.089,88.308a10.8,10.8,0,0,1-1.771-.137,11.377,11.377,0,0,1-1.486-.341q-.664-.2-1.146-.4l-.23-2.008a13.03,13.03,0,0,0,2.053.737,9.529,9.529,0,0,0,2.572.337,4.881,4.881,0,0,0,1.942-.278.92.92,0,0,0,.593-.879v-.022a.854.854,0,0,0-.252-.652,1.875,1.875,0,0,0-.871-.374,14.06,14.06,0,0,0-1.716-.234,12.15,12.15,0,0,1-2.513-.448,2.733,2.733,0,0,1-1.4-.893,2.5,2.5,0,0,1-.441-1.542v-.037a2.3,2.3,0,0,1,1.093-2.071,6.222,6.222,0,0,1,3.309-.7,11.19,11.19,0,0,1,2.516.245,10.3,10.3,0,0,1,1.76.556l.245,1.831a10.232,10.232,0,0,0-1.96-.645,10.585,10.585,0,0,0-2.36-.252,6.223,6.223,0,0,0-1.437.129,1.445,1.445,0,0,0-.726.359.811.811,0,0,0-.208.564v.007a.819.819,0,0,0,.208.571,1.649,1.649,0,0,0,.807.382,12.642,12.642,0,0,0,1.771.263,14.259,14.259,0,0,1,2.5.418,2.8,2.8,0,0,1,1.448.853,2.464,2.464,0,0,1,.47,1.6v.052a2.481,2.481,0,0,1-1.179,2.271,6.954,6.954,0,0,1-3.587.73Z" transform="translate(-1016.185 -78.37)" fill="#d0b786"/>
    </g>
    <path id="Path_41217" data-name="Path 41217" d="M775.78,7.1l-.015.044-.032-.044-.053-.069h.013Z" transform="translate(-680.303 0)" fill="#12204b"/>
    <path id="Path_41218" data-name="Path 41218" d="M748.906,81.254l.063-.044-.016.044-.184.1Z" transform="translate(-656.093 -66.739)" fill="#12204b"/>
  </g>
</svg>
